<svg height="1614" width="720" xmlns="http://www.w3.org/2000/svg">
<rect height="1614" fill="#555" width="720"></rect>
<text fill="#7f7" font-family="Courier New" font-size="12" xml:space="preserve">
<tspan x="10" y="26">14 megabytes installed</tspan>
<tspan x="10" y="42"></tspan>
<tspan x="10" y="58">node_modules</tspan>
<tspan x="10" y="74">└─┬ webdriver-manager@12.0.4 </tspan>
<tspan x="10" y="90">  ├── adm-zip@0.4.7 </tspan>
<tspan x="10" y="106">  ├─┬ chalk@1.1.3 </tspan>
<tspan x="10" y="122">  │ ├── ansi-styles@2.2.1 </tspan>
<tspan x="10" y="138">  │ ├── escape-string-regexp@1.0.5 </tspan>
<tspan x="10" y="154">  │ ├─┬ has-ansi@2.0.0 </tspan>
<tspan x="10" y="170">  │ │ └── ansi-regex@2.1.1 </tspan>
<tspan x="10" y="186">  │ ├── strip-ansi@3.0.1 </tspan>
<tspan x="10" y="202">  │ └── supports-color@2.0.0 </tspan>
<tspan x="10" y="218">  ├─┬ del@2.2.2 </tspan>
<tspan x="10" y="234">  │ ├─┬ globby@5.0.0 </tspan>
<tspan x="10" y="250">  │ │ ├─┬ array-union@1.0.2 </tspan>
<tspan x="10" y="266">  │ │ │ └── array-uniq@1.0.3 </tspan>
<tspan x="10" y="282">  │ │ └── arrify@1.0.1 </tspan>
<tspan x="10" y="298">  │ ├── is-path-cwd@1.0.0 </tspan>
<tspan x="10" y="314">  │ ├─┬ is-path-in-cwd@1.0.0 </tspan>
<tspan x="10" y="330">  │ │ └─┬ is-path-inside@1.0.0 </tspan>
<tspan x="10" y="346">  │ │   └── path-is-inside@1.0.2 </tspan>
<tspan x="10" y="362">  │ ├── object-assign@4.1.1 </tspan>
<tspan x="10" y="378">  │ ├── pify@2.3.0 </tspan>
<tspan x="10" y="394">  │ └─┬ pinkie-promise@2.0.1 </tspan>
<tspan x="10" y="410">  │   └── pinkie@2.0.4 </tspan>
<tspan x="10" y="426">  ├─┬ glob@7.1.1 </tspan>
<tspan x="10" y="442">  │ ├── fs.realpath@1.0.0 </tspan>
<tspan x="10" y="458">  │ ├─┬ inflight@1.0.6 </tspan>
<tspan x="10" y="474">  │ │ └── wrappy@1.0.2 </tspan>
<tspan x="10" y="490">  │ ├── inherits@2.0.3 </tspan>
<tspan x="10" y="506">  │ ├─┬ minimatch@3.0.3 </tspan>
<tspan x="10" y="522">  │ │ └─┬ brace-expansion@1.1.7 </tspan>
<tspan x="10" y="538">  │ │   ├── balanced-match@0.4.2 </tspan>
<tspan x="10" y="554">  │ │   └── concat-map@0.0.1 </tspan>
<tspan x="10" y="570">  │ ├── once@1.4.0 </tspan>
<tspan x="10" y="586">  │ └── path-is-absolute@1.0.1 </tspan>
<tspan x="10" y="602">  ├── ini@1.3.4 </tspan>
<tspan x="10" y="618">  ├── minimist@1.2.0 </tspan>
<tspan x="10" y="634">  ├── q@1.5.0 </tspan>
<tspan x="10" y="650">  ├─┬ request@2.81.0 </tspan>
<tspan x="10" y="666">  │ ├── aws-sign2@0.6.0 </tspan>
<tspan x="10" y="682">  │ ├── aws4@1.6.0 </tspan>
<tspan x="10" y="698">  │ ├── caseless@0.12.0 </tspan>
<tspan x="10" y="714">  │ ├─┬ combined-stream@1.0.5 </tspan>
<tspan x="10" y="730">  │ │ └── delayed-stream@1.0.0 </tspan>
<tspan x="10" y="746">  │ ├── extend@3.0.0 </tspan>
<tspan x="10" y="762">  │ ├── forever-agent@0.6.1 </tspan>
<tspan x="10" y="778">  │ ├─┬ form-data@2.1.4 </tspan>
<tspan x="10" y="794">  │ │ └── asynckit@0.4.0 </tspan>
<tspan x="10" y="810">  │ ├─┬ har-validator@4.2.1 </tspan>
<tspan x="10" y="826">  │ │ ├─┬ ajv@4.11.7 </tspan>
<tspan x="10" y="842">  │ │ │ ├── co@4.6.0 </tspan>
<tspan x="10" y="858">  │ │ │ └─┬ json-stable-stringify@1.0.1 </tspan>
<tspan x="10" y="874">  │ │ │   └── jsonify@0.0.0 </tspan>
<tspan x="10" y="890">  │ │ └── har-schema@1.0.5 </tspan>
<tspan x="10" y="906">  │ ├─┬ hawk@3.1.3 </tspan>
<tspan x="10" y="922">  │ │ ├── boom@2.10.1 </tspan>
<tspan x="10" y="938">  │ │ ├── cryptiles@2.0.5 </tspan>
<tspan x="10" y="954">  │ │ ├── hoek@2.16.3 </tspan>
<tspan x="10" y="970">  │ │ └── sntp@1.0.9 </tspan>
<tspan x="10" y="986">  │ ├─┬ http-signature@1.1.1 </tspan>
<tspan x="10" y="1002">  │ │ ├── assert-plus@0.2.0 </tspan>
<tspan x="10" y="1018">  │ │ ├─┬ jsprim@1.4.0 </tspan>
<tspan x="10" y="1034">  │ │ │ ├── assert-plus@1.0.0 </tspan>
<tspan x="10" y="1050">  │ │ │ ├── extsprintf@1.0.2 </tspan>
<tspan x="10" y="1066">  │ │ │ ├── json-schema@0.2.3 </tspan>
<tspan x="10" y="1082">  │ │ │ └── verror@1.3.6 </tspan>
<tspan x="10" y="1098">  │ │ └─┬ sshpk@1.13.0 </tspan>
<tspan x="10" y="1114">  │ │   ├── asn1@0.2.3 </tspan>
<tspan x="10" y="1130">  │ │   ├── assert-plus@1.0.0 </tspan>
<tspan x="10" y="1146">  │ │   ├── bcrypt-pbkdf@1.0.1 </tspan>
<tspan x="10" y="1162">  │ │   ├─┬ dashdash@1.14.1 </tspan>
<tspan x="10" y="1178">  │ │   │ └── assert-plus@1.0.0 </tspan>
<tspan x="10" y="1194">  │ │   ├── ecc-jsbn@0.1.1 </tspan>
<tspan x="10" y="1210">  │ │   ├─┬ getpass@0.1.6 </tspan>
<tspan x="10" y="1226">  │ │   │ └── assert-plus@1.0.0 </tspan>
<tspan x="10" y="1242">  │ │   ├── jodid25519@1.0.2 </tspan>
<tspan x="10" y="1258">  │ │   ├── jsbn@0.1.1 </tspan>
<tspan x="10" y="1274">  │ │   └── tweetnacl@0.14.5 </tspan>
<tspan x="10" y="1290">  │ ├── is-typedarray@1.0.0 </tspan>
<tspan x="10" y="1306">  │ ├── isstream@0.1.2 </tspan>
<tspan x="10" y="1322">  │ ├── json-stringify-safe@5.0.1 </tspan>
<tspan x="10" y="1338">  │ ├─┬ mime-types@2.1.15 </tspan>
<tspan x="10" y="1354">  │ │ └── mime-db@1.27.0 </tspan>
<tspan x="10" y="1370">  │ ├── oauth-sign@0.8.2 </tspan>
<tspan x="10" y="1386">  │ ├── performance-now@0.2.0 </tspan>
<tspan x="10" y="1402">  │ ├── qs@6.4.0 </tspan>
<tspan x="10" y="1418">  │ ├── safe-buffer@5.0.1 </tspan>
<tspan x="10" y="1434">  │ ├── stringstream@0.0.5 </tspan>
<tspan x="10" y="1450">  │ ├─┬ tough-cookie@2.3.2 </tspan>
<tspan x="10" y="1466">  │ │ └── punycode@1.4.1 </tspan>
<tspan x="10" y="1482">  │ ├── tunnel-agent@0.6.0 </tspan>
<tspan x="10" y="1498">  │ └── uuid@3.0.1 </tspan>
<tspan x="10" y="1514">  ├── rimraf@2.6.1 </tspan>
<tspan x="10" y="1530">  ├── semver@5.3.0 </tspan>
<tspan x="10" y="1546">  └─┬ xml2js@0.4.17 </tspan>
<tspan x="10" y="1562">    ├── sax@1.2.2 </tspan>
<tspan x="10" y="1578">    └─┬ xmlbuilder@4.2.1 </tspan>
<tspan x="10" y="1594">      └── lodash@4.17.4</tspan>
</text>
</svg>
